# xmcd CD database file
#
# Track frame offsets:
#	150
#	14602
#	31121
#	51040
#	63630
#	84415
#	98715
#	120561
#	137572
#	154188
#	168921
#	182697
#	194528
#	207893
#	227988
#
# Disc length: 3253 seconds
#
# Revision: 1
# Processed by: cddbd v1.5.2PL0 Copyright (c) Steve Scherf et al.
# Submitted via: Feurio! 1.67 - http://www.feurio.com
#
DISCID=c50cb30f
DTITLE=Various Artist - Duety lasky
DYEAR=2003
DGENRE=Country
TTITLE0=Karel Gott, M. Holanova - Cau lasko
TTITLE1=Iveta Bartosova, M. Sepesi - Knofliky lasky
TTITLE2=Helena Vondrackova, J. Korn - To pan Chopin
TTITLE3=Hana Zagorova, P. Rezek - Duhova vila
TTITLE4=Eva Pilarova, W. Matuska - Ach, ta laska nebeska
TTITLE5=Helena Vondrackova, W. Matuska - Tisic mil
TTITLE6=Helena Vondrackova, Svatava Cerna - Dve mala kridla tu nejsou
TTITLE7=Eva Pilarova, W. Matuska - Tam za vodou v rakosi
TTITLE8=Ludmila Podhubecka, P. Rezek - O, mamo
TTITLE9=Hana Zagorova, P. Rezek - Vanocni tajemstvi
TTITLE10=Helena Vondrackova, K. Gott - Dingi-lingi
TTITLE11=Petr Rezek, Sv. Cech - Budiky
TTITLE12=Helena Vondrackova, J. Korn - V zene kdekdo se splet
TTITLE13=Helena Vondrackova, K. Gott - Song hral nam ten dabel
TTITLE14=Darila Rolincova, K. Gott - Zvonky stesti
EXTD=Various Artist - DUETY LASKY
EXTT0=
EXTT1=
EXTT2=
EXTT3=
EXTT4=
EXTT5=
EXTT6=
EXTT7=
EXTT8=
EXTT9=
EXTT10=
EXTT11=
EXTT12=
EXTT13=
EXTT14=
PLAYORDER=
